<mxfile host="app.diagrams.net" modified="2023-06-10T04:50:29.633Z" agent="Mozilla/5.0 (Windows NT 10.0; Win64; x64) AppleWebKit/537.36 (KHTML, like Gecko) Chrome/114.0.0.0 Safari/537.36 Edg/114.0.1823.43" version="21.3.8" etag="__Qy0RAQ2vC5e4klpG3e" type="github">
  <diagram name="第 1 页" id="nArMdhRMrzPbO1aU1cHg">
    <mxGraphModel>
      <root>
        <mxCell id="0" />
        <mxCell id="1" parent="0" />
      </root>
    </mxGraphModel>
  </diagram>
</mxfile>
